<svg width="32" height="32" viewBox="0 0 32 32" fill="none" xmlns="http://www.w3.org/2000/svg">
  <rect width="32" height="32" rx="4" fill="white"/>
  <path fill-rule="evenodd" clip-rule="evenodd" d="M12.8454 8.3837C11.485 7.00153 9.59259 6.14453 7.5 6.14453C3.35786 6.14453 0 9.5024 0 13.6445C0 17.7867 3.35786 21.1445 7.5 21.1445C9.50619 21.1445 11.3284 20.3568 12.6742 19.0738C11.6202 17.5999 11 15.7947 11 13.8445C11 11.791 11.6877 9.89817 12.8454 8.3837Z" fill="black" transform="translate(2 2)"/>
  <path d="M18.4365 6.57312H21.5798V21.1445H18.4365V6.57312Z" fill="black" transform="translate(2 2)"/>
  <path d="M27.2939 12.2883V15.4316H12.7225V12.2883H27.2939Z" fill="black" transform="translate(2 2)"/>
  <path d="M24.0488 7.59766L26.2715 9.82028L15.9679 20.1238L13.7453 17.9012L24.0488 7.59766Z" fill="black" transform="translate(2 2)"/>
  <path d="M26.2715 17.9012L24.0489 20.1239L13.7453 9.82031L15.9679 7.59769L26.2715 17.9012Z" fill="black" transform="translate(2 2)"/>
</svg>
